<?xml version="1.0" encoding="UTF-8"?>
<svg width="140px" height="121px" viewBox="0 0 140 121" version="1.1" xmlns="http://www.w3.org/2000/svg" xmlns:xlink="http://www.w3.org/1999/xlink">
    <!-- Generator: Sketch 52.4 (67378) - http://www.bohemiancoding.com/sketch -->
    <title>Logo / alone</title>
    <desc>Created with Sketch.</desc>
    <defs>
        <polyline id="path-1" points="-3.02209917e-13 0.16791685 139.896766 0.16791685 139.896766 120.318666 -3.02209917e-13 120.318666"></polyline>
        <polyline id="path-3" points="-3.02209917e-13 0.16791685 139.896766 0.16791685 139.896766 120.318666 -3.02209917e-13 120.318666"></polyline>
    </defs>
    <g id="Landing-page-v3" stroke="none" stroke-width="1" fill="none" fill-rule="evenodd">
        <g id="Connexion---Worker-Copy" transform="translate(-217.000000, -892.000000)">
            <g id="Group-18-Copy" transform="translate(0.000000, 830.000000)">
                <g id="Logo-/-alone" transform="translate(217.000000, 62.000000)">
                    <g id="Logo_horizontal">
                        <g id="Logo">
                            <path d="M80.3303821,67.7469862 L40.2363255,67.7469862 C36.0743627,67.7469862 32.7009062,64.3854373 32.7009062,60.2381651 C32.7009062,56.0908933 36.0743627,52.729344 40.2363255,52.729344 L80.3303821,52.729344 C84.4923448,52.729344 87.8658014,56.0908933 87.8658014,60.2381651 C87.8658014,64.3854373 84.4923448,67.7469862 80.3303821,67.7469862" id="Fill-1" fill="#F6593B" fill-rule="nonzero"></path>
                            <path d="M67.8187731,40.2618979 L67.8187731,80.2144327 C67.8187731,84.3617046 64.4453165,87.7232538 60.2833538,87.7232538 C56.1213911,87.7232538 52.7479345,84.3617046 52.7479345,80.2144327 L52.7479345,40.2618979 C52.7479345,36.1146257 56.1213911,32.7530767 60.2833538,32.7530767 C64.4453165,32.7530767 67.8187731,36.1146257 67.8187731,40.2618979" id="Fill-3" fill="#F6593B" fill-rule="nonzero"></path>
                            <g id="Group-7">
                                <g id="Fill-5-Clipped">
                                    <mask id="mask-2" fill="white">
                                        <use xlink:href="#path-1"></use>
                                    </mask>
                                    <g id="path-1"></g>
                                    <path d="M62.7951602,2.67053683 C62.7951602,4.05296084 61.6706747,5.17347719 60.2833538,5.17347719 C58.8960329,5.17347719 57.7715473,4.05296084 57.7715473,2.67053683 C57.7715473,1.28811282 58.8960329,0.167596474 60.2833538,0.167596474 C61.6706747,0.167596474 62.7951602,1.28811282 62.7951602,2.67053683" id="Fill-5" fill="#26ADF0" fill-rule="nonzero" mask="url(#mask-2)"></path>
                                </g>
                            </g>
                            <path d="M62.7951602,12.6822983 C62.7951602,14.0647223 61.6706747,15.1852387 60.2833538,15.1852387 C58.8960329,15.1852387 57.7715473,14.0647223 57.7715473,12.6822983 C57.7715473,11.2998743 58.8960329,10.1793579 60.2833538,10.1793579 C61.6706747,10.1793579 62.7951602,11.2998743 62.7951602,12.6822983" id="Fill-10" fill="#26ADF0" fill-rule="nonzero"></path>
                            <g id="Group-14">
                                <g id="Fill-12-Clipped">
                                    <mask id="mask-4" fill="white">
                                        <use xlink:href="#path-3"></use>
                                    </mask>
                                    <g id="path-3"></g>
                                    <path d="M95.1818696,31.5933944 C104.193025,42.481385 108.171727,57.6584146 103.570097,73.5915321 C99.258632,88.5186679 87.1440892,100.024985 72.0266317,103.81744 C41.9846229,111.355896 15.0709188,88.9287499 15.0709188,60.2382454 C15.0709188,35.3562147 35.3132653,15.1853187 60.2834341,15.1853187 L60.2834341,10.1343949 C60.2834341,9.77554718 59.5330768,9.86641284 59.1382859,9.50054783 C58.6219568,9.02205012 58.4281821,8.08623494 58.4281821,7.61691489 C58.4281821,7.11644702 58.6010798,6.38711043 59.1382859,5.89619128 C59.4863745,5.57809442 60.2834341,5.49991988 60.2834341,5.17563585 L60.2834341,0.167676568 C21.6988726,0.167676568 -8.41869091,36.28851 2.12768088,76.4468866 C7.61507363,97.3418333 24.4019782,113.557683 45.4882918,118.554753 C81.9436452,127.194503 114.71448,103.018101 119.842584,69.5772164 C120.47998,64.3879202 124.966669,63.42599 138.074682,68.4318707 C139.124415,68.8323411 140.175757,67.8471841 139.830133,66.7803306 C136.514549,56.5451067 123.150934,21.4126344 97.3585006,26.8334025 C93.721405,27.4581364 93.0880276,29.0175683 95.1818696,31.5933944 Z" id="Fill-12" fill="#26ADF0" fill-rule="nonzero" mask="url(#mask-4)"></path>
                                </g>
                            </g>
                        </g>
                    </g>
                </g>
            </g>
        </g>
    </g>
</svg>